<?xml version="1.0" standalone="no"?>
<!DOCTYPE svg PUBLIC "-//W3C//DTD SVG 20010904//EN"
 "http://www.w3.org/TR/2001/REC-SVG-20010904/DTD/svg10.dtd">
<svg version="1.0" xmlns="http://www.w3.org/2000/svg"
 width="50%" height="75%" viewBox="0 0 606 239"
 preserveAspectRatio="xMidYMid meet">

<g transform="translate(0.000000,512.000000) scale(0.100000,-0.100000)"
fill="#ffffff" stroke="none">
<path d="M2550 4949 c-119 -50 -135 -213 -28 -279 21 -13 51 -20 82 -20 150 0
212 184 92 275 -40 31 -105 41 -146 24z"/>
<path d="M2385 4534 c-16 -2 -66 -9 -110 -15 -390 -52 -793 -260 -1076 -556
-319 -334 -489 -725 -524 -1210 l-7 -93 1881 0 1881 0 0 43 c0 23 -3 71 -6
107 l-6 65 -549 -3 c-540 -3 -549 -2 -569 18 -24 24 -25 39 -6 66 14 18 31 19
560 19 479 0 546 2 546 15 0 34 -52 227 -86 318 -50 136 -152 330 -232 441
-37 52 -119 148 -181 214 -278 288 -624 475 -1012 547 -109 21 -424 35 -504
24z m420 -435 c34 -13 72 -37 100 -66 l46 -45 52 49 c70 67 131 87 241 81 95
-6 155 -30 217 -90 118 -115 120 -292 6 -451 -55 -76 -114 -133 -282 -272 -71
-60 -149 -126 -172 -147 -24 -21 -51 -38 -62 -38 -10 0 -41 19 -67 43 -27 24
-118 101 -201 171 -184 154 -242 217 -291 315 -34 70 -37 81 -37 165 0 75 4
98 23 133 39 75 117 138 202 164 52 15 168 10 225 -12z m-1011 -223 c91 -28
152 -96 164 -184 l7 -47 45 -5 c57 -7 114 -41 150 -92 69 -95 59 -212 -27
-287 -81 -72 -160 -83 -435 -58 -79 8 -143 18 -150 25 -14 14 -36 225 -37 353
-1 114 19 180 72 236 40 42 98 72 143 73 11 0 42 -6 68 -14z"/>
<path d="M2599 4007 c-181 -68 -194 -252 -31 -429 73 -79 373 -330 388 -324 6
2 78 60 160 129 258 215 328 307 329 434 0 52 -4 67 -30 105 -73 103 -229 128
-330 53 -16 -12 -46 -48 -65 -79 -22 -35 -44 -59 -59 -63 -26 -6 -37 4 -104
96 -18 24 -50 53 -71 65 -49 25 -138 31 -187 13z"/>
<path d="M1661 3750 c-47 -48 -56 -114 -40 -290 l14 -145 125 -13 c194 -19
271 -6 319 54 27 35 27 83 -2 125 -34 50 -61 61 -138 53 -60 -5 -68 -4 -81 15
-12 16 -13 32 -5 74 12 65 -2 100 -52 134 -50 34 -102 31 -140 -7z"/>
<path d="M502 2547 c-116 -42 -173 -173 -123 -282 23 -51 79 -101 128 -114 53
-15 4033 -15 4086 0 81 22 147 111 147 199 0 88 -66 177 -147 199 -57 16
-4047 14 -4091 -2z"/>
<path d="M670 940 l0 -780 260 0 260 0 0 780 0 780 -260 0 -260 0 0 -780z
m314 -431 c14 -7 33 -28 42 -47 13 -29 14 -42 5 -72 -14 -47 -48 -70 -101 -70
-92 0 -132 109 -65 176 27 27 77 32 119 13z"/>
<path d="M1600 1614 c-70 -11 -143 -29 -217 -56 l-83 -30 0 -574 c0 -316 2
-574 5 -574 3 0 44 11 92 25 272 79 465 73 771 -26 328 -106 482 -132 651
-110 352 45 1172 510 1489 845 125 133 147 203 86 275 -58 70 -219 113 -341
91 -250 -43 -537 -190 -918 -470 -109 -81 -161 -95 -340 -94 -160 1 -299 22
-545 84 -163 41 -194 58 -183 101 11 41 39 42 188 5 285 -71 412 -89 577 -84
98 3 132 8 170 25 83 38 98 106 43 198 -102 174 -535 322 -1069 365 -122 9
-322 12 -376 4z"/>
</g>
</svg>
